<svg xmlns="http://www.w3.org/2000/svg" width="50" height="50" viewBox="0 0 50 50">
  <g id="Group_57" data-name="Group 57" transform="translate(-1730 -4740)">
    <path id="Path_63" data-name="Path 63" d="M50,25A25,25,0,1,1,25,0,25,25,0,0,1,50,25Z" transform="translate(1730 4740)" fill="#3b2b0c"/>
    <path id="Path_64" data-name="Path 64" d="M34.209,9H15.039A6.045,6.045,0,0,0,9,15.039V34.211a6.045,6.045,0,0,0,6.039,6.039H34.209a6.046,6.046,0,0,0,6.041-6.039V15.039A6.046,6.046,0,0,0,34.209,9Zm1.733,3.6.69,0v5.3l-5.277.018-.019-5.3,4.606-.015ZM20.166,21.419a5.488,5.488,0,1,1-1.042,3.206A5.5,5.5,0,0,1,20.166,21.419ZM37.206,34.211a3,3,0,0,1-3,2.995H15.039a3,3,0,0,1-2.995-2.995V21.419h4.666a8.545,8.545,0,1,0,15.83,0h4.667V34.211Z" transform="translate(1730.375 4740.375)" fill="#fff"/>
  </g>
</svg>
