<?xml version="1.0" encoding="UTF-8"?>
<svg id="Layer_1" data-name="Layer 1" xmlns="http://www.w3.org/2000/svg" viewBox="0 0 190.119 84.47">
  <defs>
    <style>
      .cls-1 {
        stroke-width: 0px;
      }

      .cls-2 {
        isolation: isolate;
      }
    </style>
  </defs>
  <g>
    <path class="cls-1" d="m6.503,15.759c0-5.255,4.515-9.593,10.6-9.593,7.115,0,11.966,6.238,16.069,15.418l.831-.159-2.306-12.006c-3.625-1.834-8.92-3.979-13.436-3.979-9.297,0-15.995,5.255-15.995,12.344,0,16.015,28.304,11.394,28.304,25.067,0,5.76-4.582,9.973-10.939,9.973-7.794,0-13.88-6.494-17.911-16.937l-.831.159,2.306,12.006s6.059,5.497,15.75,5.497,15.861-5.382,15.861-12.914c0-16.457-28.304-12.027-28.304-24.877Z"/>
    <path class="cls-1" d="m69.849,48.296c-.621.18-2.001.535-4.076.568-2.523.041-5.573.09-8.781-1.72-.409-.231-5.045-2.94-6.533-8.399-.261-.957-.365-1.777-.411-2.336-.032-7.964-.065-15.928-.097-23.891,0-.357.036-2.252,1.568-3.784,1.532-1.532,3.428-1.568,3.784-1.568v-.847h-15.547v.847c2.956,0,5.352,2.396,5.352,5.352v22.486c.021,1.414.268,7.884,5.433,13.114,3.637,3.682,8.408,5.428,12.28,5.556,2.375.079,4.592-.444,4.825-.5,2.139-.517,3.889-1.354,4.783-1.922.821-.522,1.765-1.251,1.765-1.251.192-.153.385-.306.577-.459l-1.167-2.95c-.846.541-2.11,1.228-3.753,1.705Z"/>
    <path class="cls-1" d="m74.411,6.318v.847c2.956,0,5.352,2.396,5.352,5.352v22.509c-.005.501-.033,1.041-.096,1.613-.139,1.259-.412,2.356-.711,3.263.275.706.55,1.412.826,2.118.189-.6.364-1.27.503-2.006.241-1.276.311-2.431.303-3.403V12.517c0-2.955,2.396-5.352,5.352-5.352h0v-.847h-11.528Z"/>
  </g>
  <g id="MIN" class="cls-2">
    <g>
      <path class="cls-1" d="m113.511,69.509v-34.032c0-1.466.593-2.794,1.556-3.757s2.29-1.555,3.756-1.555v-.847h-10.12l-.004.009-16.47,34.321c-.989,2.067-3.961,1.97-4.826-.151l-13.806-34.179h-11.688v.847c1.466,0,2.798.593,3.761,1.555.958.963,1.555,2.291,1.555,3.762.013,4.082.027,8.164.04,12.245.26-.003.52-.007.78-.01v-12.517c0-1.077,1.485-1.366,1.889-.368l16.368,40.443c.098.24.33.396.584.396.12,0,.236-.036.334-.099.103-.062.183-.151.236-.263l19.449-40.543c.435-.906,1.798-.597,1.798.409v34.332c0,1.471-.597,2.798-1.555,3.761-.962.963-2.295,1.556-3.761,1.556v.847h15.44v-.847c-2.937,0-5.316-2.38-5.316-5.316Z"/>
      <path class="cls-1" d="m67.225,69.509c-.061.677-.204,2.406-1.557,3.759-.962.962-2.291,1.557-3.759,1.557v.847h11.452v-.847c-1.466,0-2.798-.593-3.761-1.556-.629-.632-1.102-1.421-1.353-2.305-.192-.675-.2-1.222-.202-1.456-.01-1.489-.023-7.344-.003-15.346-.263,0-.525,0-.788,0-.051,8.366-.05,12.99-.005,14.543.003.096.012.399-.024.803Z"/>
      <path class="cls-1" d="m123.754,30.165c2.932,0,5.307,2.375,5.307,5.308v34.04c0,1.462-.592,2.79-1.555,3.753-.958.962-2.286,1.555-3.752,1.555v.852h15.427v-.852h-.004c-2.933,0-5.308-2.38-5.308-5.308v-34.04c0-2.933,2.375-5.308,5.308-5.308h.004v-.847h-15.427v.847Z"/>
      <path class="cls-1" d="m189.099,30.165h.027v-.847h-11.462v.847c2.932,0,5.308,2.376,5.308,5.308v35.065c0,.414-.165.784-.437,1.052-.268.271-.638.437-1.052.437-.535,0-1.029-.29-1.292-.758l-23.689-41.95h-12.375v.847c2.932,0,5.308,2.376,5.308,5.307v34.09c0,2.904-2.354,5.259-5.259,5.259h-.049v.852h11.391v-.852c-2.904,0-5.259-2.354-5.259-5.259v-35.069c0-.633.37-1.234.967-1.448.713-.264,1.462.049,1.81.659l23.716,41.969h12.375v-.852c-2.945,0-5.334-2.389-5.334-5.334v-34.014c0-2.932,2.376-5.308,5.307-5.308Z"/>
    </g>
  </g>
</svg>